<?xml version="1.0" encoding="utf-8"?>
<!-- Generator: Adobe Illustrator 16.0.0, SVG Export Plug-In . SVG Version: 6.00 Build 0)  -->
<!DOCTYPE svg PUBLIC "-//W3C//DTD SVG 1.1//EN" "http://www.w3.org/Graphics/SVG/1.1/DTD/svg11.dtd">
<svg version="1.1" id="Layer_1" xmlns="http://www.w3.org/2000/svg" xmlns:xlink="http://www.w3.org/1999/xlink" x="0px" y="0px"
	 width="1024px" height="512px" viewBox="0 0 1024 512" enable-background="new 0 0 1024 512" xml:space="preserve">
<path fill="#6D6E71" d="M914.613,179.478c1.482,1.483,2.219,3.268,2.219,5.351c0,2.084-0.736,3.869-2.219,5.371
	c-1.484,1.493-3.277,2.239-5.391,2.239s-3.898-0.737-5.371-2.22c-1.465-1.483-2.201-3.267-2.201-5.352
	c0-2.084,0.736-3.868,2.221-5.371c1.484-1.493,3.266-2.24,5.371-2.24C911.336,177.258,913.129,177.995,914.613,179.478z
	 M913.973,189.57c1.289-1.318,1.938-2.889,1.938-4.722c0-1.832-0.639-3.393-1.918-4.702c-1.279-1.299-2.852-1.949-4.711-1.949
	c-1.863,0-3.434,0.65-4.723,1.958c-1.289,1.309-1.93,2.879-1.93,4.722c0,1.842,0.641,3.412,1.912,4.711
	c1.268,1.299,2.84,1.948,4.701,1.948S912.674,190.878,913.973,189.57z M912.906,183.385c0,1.358-0.592,2.211-1.783,2.56l2.182,2.957
	h-1.766l-1.967-2.743h-1.805v2.743h-1.426v-8.202h3.084c1.24,0,2.133,0.214,2.676,0.64
	C912.645,181.766,912.906,182.444,912.906,183.385z M911.072,184.539c0.293-0.232,0.428-0.63,0.428-1.164
	c0-0.533-0.145-0.911-0.436-1.125c-0.291-0.213-0.814-0.31-1.551-0.31h-1.746v2.957h1.697
	C910.25,184.888,910.793,184.771,911.072,184.539z"/>
<path fill="#6D6E71" d="M400.687,145.741v15.065h-1.939v-15.065h-5.507v-1.861h12.981v1.861H400.687z"/>
<path fill="#6D6E71" d="M427.696,160.806v-7.455h-10.199v7.455h-1.939v-16.937h1.939v7.649h10.199v-7.649h1.939v16.937H427.696z"/>
<path fill="#6D6E71" d="M443.13,145.741v5.564h8.541v1.861h-8.541v5.798h9.869v1.842h-11.808v-16.937h11.498v1.862h-9.559V145.741z"
	/>
<path fill="#D22128" d="M378.476,276.871l40.456-96.714h7.765l40.456,96.714h-10.218L444.4,246.633h-43.452l-12.399,30.238H378.476z
	 M422.887,191.325l-19.884,47.815h39.234L422.887,191.325z"/>
<path fill="#D22128" d="M477.594,276.871v-96.714h40.049c16.617,0,28.609,15.395,28.609,30.374
	c0,15.802-11.168,30.645-27.785,30.645h-31.468v35.686h-9.405V276.871z M486.999,232.731h30.916
	c11.439,0,18.799-10.489,18.799-22.201c0-12.128-8.986-21.93-19.613-21.93h-30.102L486.999,232.731L486.999,232.731z"/>
<path fill="#D22128" d="M540.959,276.871l40.455-96.714h7.768l40.455,96.714h-10.219l-12.535-30.238h-43.451l-12.4,30.238H540.959z
	 M585.369,191.325l-19.883,47.815h39.234L585.369,191.325z"/>
<path fill="#D22128" d="M675.406,179.604c17.158,0,29.693,8.716,35.686,21.115l-7.631,4.634
	c-6.127-12.807-18.119-17.16-28.607-17.16c-23.16,0-35.822,20.708-35.822,40.185c0,21.386,15.666,40.727,36.229,40.727
	c10.896,0,23.703-5.447,29.83-17.984l7.9,4.082c-6.262,14.435-23.432,22.472-38.273,22.472c-26.564,0-45.225-25.333-45.225-49.85
	C629.502,204.539,646.252,179.604,675.406,179.604z"/>
<path fill="#D22128" d="M802.58,180.157v96.714h-9.539v-45.226h-57.344v45.226h-9.395v-96.714h9.395v43.044h57.344v-43.044H802.58
	L802.58,180.157z"/>
<path fill="#D22128" d="M889.396,268.418v8.443h-64.975v-96.705h63.754v8.443h-54.35v34.872h47.406v8.037h-47.406v36.918h55.57
	V268.418z"/>
<path fill="#6D6E71" d="M387.502,297.346c1.144,0.34,2.151,0.805,3.005,1.377l-0.999,2.191c-0.873-0.582-1.804-1.008-2.802-1.299
	c-0.989-0.281-1.939-0.428-2.831-0.428c-1.318,0-2.375,0.234-3.16,0.709c-0.786,0.475-1.183,1.143-1.183,2.006
	c0,0.738,0.224,1.357,0.66,1.844c0.436,0.482,0.989,0.861,1.648,1.133s1.561,0.582,2.715,0.93c1.396,0.447,2.521,0.863,3.364,1.252
	c0.853,0.387,1.58,0.959,2.181,1.727c0.601,0.756,0.902,1.764,0.902,3.004c0,1.135-0.311,2.115-0.921,2.967
	c-0.61,0.844-1.483,1.502-2.598,1.969c-1.125,0.465-2.415,0.697-3.878,0.697c-1.463,0-2.879-0.281-4.256-0.844
	c-1.376-0.561-2.559-1.318-3.548-2.268l1.037-2.094c0.931,0.91,2.007,1.619,3.229,2.123c1.222,0.504,2.404,0.756,3.568,0.756
	c1.484,0,2.646-0.291,3.5-0.863c0.853-0.572,1.279-1.348,1.279-2.316c0-0.758-0.223-1.387-0.669-1.881
	c-0.446-0.494-0.998-0.873-1.657-1.154c-0.66-0.271-1.561-0.582-2.715-0.93c-1.376-0.408-2.491-0.805-3.354-1.184
	c-0.863-0.379-1.59-0.939-2.181-1.697c-0.591-0.746-0.892-1.734-0.892-2.967c0-1.057,0.291-1.977,0.872-2.771
	s1.416-1.416,2.482-1.852c1.076-0.438,2.307-0.66,3.703-0.66C385.194,296.832,386.348,297.008,387.502,297.346z"/>
<path fill="#6D6E71" d="M417.797,298.238c1.628,0.912,2.928,2.162,3.878,3.723c0.95,1.57,1.435,3.287,1.435,5.168
	c0,1.891-0.475,3.625-1.435,5.195c-0.95,1.58-2.25,2.822-3.878,3.742c-1.629,0.922-3.422,1.387-5.351,1.387
	c-1.968,0-3.762-0.455-5.4-1.387c-1.628-0.92-2.927-2.17-3.877-3.742c-0.95-1.58-1.435-3.305-1.435-5.195
	c0-1.893,0.475-3.617,1.435-5.188c0.95-1.57,2.249-2.811,3.877-3.713c1.628-0.912,3.432-1.357,5.4-1.357
	C414.375,296.861,416.159,297.316,417.797,298.238z M408.277,300.166c-1.27,0.719-2.288,1.697-3.044,2.92
	c-0.756,1.221-1.144,2.568-1.144,4.043c0,1.482,0.378,2.84,1.144,4.07c0.756,1.232,1.774,2.211,3.044,2.93
	c1.27,0.715,2.656,1.076,4.159,1.076c1.502,0,2.879-0.359,4.139-1.076c1.26-0.719,2.259-1.688,3.016-2.93
	c0.746-1.23,1.125-2.588,1.125-4.07c0-1.484-0.378-2.832-1.125-4.053c-0.747-1.223-1.755-2.191-3.016-2.91
	c-1.26-0.715-2.637-1.084-4.129-1.084C410.943,299.082,409.557,299.441,408.277,300.166z"/>
<path fill="#6D6E71" d="M437.807,299.17v7.174h9.54v2.248h-9.54v8.744h-2.336V296.92h12.972v2.25H437.807L437.807,299.17z"/>
<path fill="#6D6E71" d="M467.386,299.17v18.166h-2.337V299.17h-6.631v-2.25h15.647v2.25H467.386z"/>
<path fill="#6D6E71" d="M504.245,317.336l-5.506-17.197l-5.584,17.197h-2.376l-6.835-20.416h2.512l5.613,17.713l5.535-17.684
	l2.336-0.029l5.594,17.713l5.536-17.713h2.424l-6.845,20.416H504.245z"/>
<path fill="#6D6E71" d="M525.137,312.18l-2.277,5.156h-2.482l9.152-20.416h2.424l9.121,20.416h-2.529l-2.279-5.156H525.137z
	 M530.682,299.576l-4.547,10.354h9.152L530.682,299.576z"/>
<path fill="#6D6E71" d="M561.375,310.832c-0.58,0.039-1.037,0.057-1.365,0.057h-5.43v6.447h-2.326V296.92h7.756
	c2.539,0,4.518,0.602,5.932,1.793c1.406,1.193,2.115,2.889,2.115,5.07c0,1.668-0.398,3.074-1.184,4.199
	c-0.785,1.123-1.92,1.938-3.393,2.424l4.77,6.93h-2.646L561.375,310.832z M564.305,307.43c0.998-0.816,1.502-2.018,1.502-3.588
	c0-1.541-0.504-2.705-1.502-3.49c-1-0.785-2.434-1.182-4.295-1.182h-5.43v9.48h5.43C561.871,308.65,563.305,308.244,564.305,307.43z
	"/>
<path fill="#6D6E71" d="M583.402,299.17v6.707h10.295v2.25h-10.295v6.988h11.906v2.221h-14.244V296.92h13.855v2.25H583.402
	L583.402,299.17z"/>
<path fill="#6D6E71" d="M627.871,299.17v7.174h9.541v2.248h-9.541v8.744h-2.336V296.92h12.973v2.25H627.871L627.871,299.17z"/>
<path fill="#6D6E71" d="M664.354,298.238c1.629,0.912,2.928,2.162,3.877,3.723c0.951,1.57,1.436,3.287,1.436,5.168
	c0,1.891-0.475,3.625-1.436,5.195c-0.949,1.58-2.248,2.822-3.877,3.742c-1.629,0.922-3.422,1.387-5.352,1.387
	c-1.969,0-3.762-0.455-5.4-1.387c-1.629-0.92-2.928-2.17-3.877-3.742c-0.951-1.58-1.436-3.305-1.436-5.195
	c0-1.893,0.475-3.617,1.436-5.188c0.949-1.57,2.248-2.811,3.877-3.713c1.629-0.912,3.432-1.357,5.4-1.357
	C660.941,296.861,662.725,297.316,664.354,298.238z M654.844,300.166c-1.271,0.719-2.289,1.697-3.045,2.92
	c-0.756,1.221-1.145,2.568-1.145,4.043c0,1.482,0.379,2.84,1.145,4.07c0.756,1.232,1.773,2.211,3.045,2.93
	c1.27,0.715,2.654,1.076,4.158,1.076c1.502,0,2.879-0.359,4.139-1.076c1.262-0.719,2.26-1.688,3.016-2.93
	c0.746-1.23,1.125-2.588,1.125-4.07c0-1.484-0.379-2.832-1.125-4.053c-0.746-1.223-1.754-2.191-3.016-2.91
	c-1.26-0.715-2.637-1.084-4.129-1.084C657.498,299.082,656.113,299.441,654.844,300.166z"/>
<path fill="#6D6E71" d="M696.482,315.193c-1.523,1.504-3.617,2.26-6.283,2.26c-2.686,0-4.789-0.756-6.311-2.26
	c-1.521-1.502-2.289-3.586-2.289-6.262V296.91h2.336v12.021c0,1.967,0.562,3.5,1.678,4.605c1.125,1.104,2.646,1.656,4.586,1.656
	c1.947,0,3.471-0.551,4.566-1.646c1.105-1.096,1.648-2.637,1.648-4.625V296.9h2.336v12.021
	C698.76,311.607,698.004,313.691,696.482,315.193z"/>
<path fill="#6D6E71" d="M727,317.336l-12.244-16.393v16.393h-2.336V296.92h2.424l12.244,16.412V296.92h2.307v20.416H727z"/>
<path fill="#6D6E71" d="M756.947,298.268c1.59,0.902,2.85,2.123,3.771,3.674c0.932,1.551,1.387,3.287,1.387,5.188
	s-0.467,3.645-1.387,5.195c-0.922,1.562-2.191,2.783-3.811,3.674c-1.609,0.893-3.412,1.338-5.381,1.338h-8.172V296.92h8.26
	C753.582,296.92,755.357,297.365,756.947,298.268z M745.691,315.115h5.953c1.502,0,2.869-0.338,4.102-1.025
	c1.23-0.689,2.209-1.639,2.928-2.861c0.717-1.211,1.074-2.568,1.074-4.07c0-1.504-0.367-2.852-1.096-4.062
	c-0.727-1.213-1.715-2.162-2.965-2.869c-1.242-0.699-2.617-1.057-4.131-1.057h-5.865V315.115z"/>
<path fill="#6D6E71" d="M775.387,312.18l-2.279,5.156h-2.48l9.152-20.416h2.424l9.121,20.416h-2.52l-2.279-5.156H775.387z
	 M780.932,299.576l-4.547,10.354h9.152L780.932,299.576z"/>
<path fill="#6D6E71" d="M806.643,299.17v18.166h-2.328V299.17h-6.629v-2.25h15.646v2.25H806.643z"/>
<path fill="#6D6E71" d="M824.568,317.336V296.92h2.336v20.416H824.568z"/>
<path fill="#6D6E71" d="M855.377,298.238c1.629,0.912,2.93,2.162,3.879,3.723c0.949,1.57,1.434,3.287,1.434,5.168
	c0,1.891-0.475,3.625-1.434,5.195c-0.949,1.58-2.25,2.822-3.879,3.742c-1.629,0.922-3.422,1.387-5.352,1.387
	c-1.967,0-3.762-0.455-5.398-1.387c-1.629-0.92-2.928-2.17-3.879-3.742c-0.951-1.58-1.434-3.305-1.434-5.195
	c0-1.893,0.475-3.617,1.434-5.188c0.951-1.57,2.25-2.811,3.879-3.713c1.627-0.912,3.432-1.357,5.398-1.357
	C851.965,296.861,853.748,297.316,855.377,298.238z M845.867,300.166c-1.27,0.719-2.287,1.697-3.045,2.92
	c-0.756,1.221-1.143,2.568-1.143,4.043c0,1.482,0.377,2.84,1.143,4.07c0.758,1.232,1.775,2.211,3.045,2.93
	c1.27,0.715,2.656,1.076,4.158,1.076c1.504,0,2.881-0.359,4.141-1.076c1.26-0.719,2.258-1.688,3.016-2.93
	c0.746-1.23,1.125-2.588,1.125-4.07c0-1.484-0.379-2.832-1.125-4.053c-0.748-1.223-1.756-2.191-3.016-2.91
	c-1.26-0.715-2.637-1.084-4.131-1.084C848.523,299.082,847.146,299.441,845.867,300.166z"/>
<path fill="#6D6E71" d="M887.643,317.336l-12.246-16.393v16.393h-2.336V296.92h2.424l12.244,16.412V296.92h2.307v20.416H887.643z"/>
<linearGradient id="SVGID_1_" gradientUnits="userSpaceOnUse" x1="-4767.6738" y1="2089.0732" x2="-4492.2163" y2="1766.9731" gradientTransform="matrix(0.0607 -0.1302 -0.1302 -0.0607 892.9344 -372.8915)">
	<stop  offset="0" style="stop-color:#F69923"/>
	<stop  offset="0.3123" style="stop-color:#F79A23"/>
	<stop  offset="0.8383" style="stop-color:#E97826"/>
</linearGradient>
<path fill="url(#SVGID_1_)" d="M345.087,98.615c-4.392,2.598-11.692,9.937-20.407,20.582l8.008,15.114
	c5.623-8.037,11.333-15.27,17.091-21.445c0.446-0.495,0.679-0.727,0.679-0.727c-0.223,0.242-0.446,0.485-0.679,0.727
	c-1.861,2.055-7.513,8.647-16.044,21.755c8.211-0.407,20.833-2.094,31.129-3.849c3.064-17.16-3.005-25.013-3.005-25.013
	S354.132,93.273,345.087,98.615z"/>
<path fill="none" d="M331.524,184.839c0.059-0.01,0.117-0.02,0.175-0.029l-1.153,0.126c-0.068,0.029-0.136,0.068-0.204,0.097
	C330.739,184.965,331.137,184.897,331.524,184.839z"/>
<path fill="none" d="M323.352,211.907c-0.649,0.145-1.328,0.261-2.007,0.358C322.033,212.168,322.702,212.052,323.352,211.907z"/>
<path fill="none" d="M267.801,272.645c0.087-0.223,0.175-0.455,0.252-0.68c1.765-4.652,3.51-9.18,5.235-13.58
	c1.939-4.946,3.859-9.735,5.749-14.378c1.997-4.887,3.965-9.617,5.905-14.184c2.036-4.789,4.042-9.404,6.01-13.845
	c1.6-3.615,3.18-7.115,4.741-10.499c0.524-1.135,1.038-2.25,1.551-3.355c1.018-2.2,2.036-4.343,3.035-6.446
	c0.921-1.939,1.842-3.839,2.744-5.701c0.3-0.62,0.601-1.241,0.901-1.852c0.049-0.097,0.097-0.194,0.146-0.3l-0.989,0.106
	l-0.776-1.542c-0.077,0.155-0.155,0.301-0.232,0.446c-1.406,2.793-2.802,5.613-4.178,8.454c-0.795,1.639-1.59,3.296-2.385,4.944
	c-2.191,4.595-4.343,9.229-6.457,13.893c-2.142,4.711-4.236,9.453-6.292,14.203c-2.017,4.664-4.004,9.326-5.933,13.98
	c-1.939,4.653-3.83,9.277-5.672,13.881c-1.929,4.799-3.8,9.568-5.623,14.271c-0.407,1.057-0.824,2.123-1.231,3.18
	c-1.454,3.801-2.879,7.543-4.266,11.246l1.232,2.434l1.105-0.117c0.039-0.105,0.078-0.223,0.126-0.33
	C264.292,282.01,266.056,277.26,267.801,272.645z"/>
<path fill="none" d="M320.841,212.343L320.841,212.343c0.01,0,0.01,0,0.01-0.01C320.851,212.343,320.851,212.343,320.841,212.343z"
	/>
<path fill="#BE202E" d="M318.185,225.547c-1.028,0.184-2.075,0.368-3.151,0.553c-0.01,0-0.01,0.009-0.02,0.009
	c0.543-0.077,1.085-0.164,1.609-0.251C317.157,225.76,317.67,225.655,318.185,225.547z"/>
<path opacity="0.35" fill="#BE202E" enable-background="new    " d="M318.185,225.547c-1.028,0.184-2.075,0.368-3.151,0.553
	c-0.01,0-0.01,0.009-0.02,0.009c0.543-0.077,1.085-0.164,1.609-0.251C317.157,225.76,317.67,225.655,318.185,225.547z"/>
<path fill="#BE202E" d="M320.87,212.333C320.86,212.333,320.86,212.333,320.87,212.333c-0.009,0.01-0.019,0.01-0.019,0.01
	c0.174-0.02,0.339-0.049,0.504-0.078c0.678-0.097,1.348-0.213,2.007-0.358C322.537,212.052,321.713,212.188,320.87,212.333
	L320.87,212.333L320.87,212.333z"/>
<path opacity="0.35" fill="#BE202E" enable-background="new    " d="M320.87,212.333C320.86,212.333,320.86,212.333,320.87,212.333
	c-0.009,0.01-0.019,0.01-0.019,0.01c0.174-0.02,0.339-0.049,0.504-0.078c0.678-0.097,1.348-0.213,2.007-0.358
	C322.537,212.052,321.713,212.188,320.87,212.333L320.87,212.333L320.87,212.333z"/>
<linearGradient id="SVGID_2_" gradientUnits="userSpaceOnUse" x1="-6806.354" y1="2124.668" x2="-4841.0967" y2="2124.668" gradientTransform="matrix(0.0607 -0.1302 -0.1302 -0.0607 892.9344 -372.8915)">
	<stop  offset="0.3233" style="stop-color:#9E2064"/>
	<stop  offset="0.6302" style="stop-color:#C92037"/>
	<stop  offset="0.7514" style="stop-color:#CD2335"/>
	<stop  offset="1" style="stop-color:#E97826"/>
</linearGradient>
<path fill="url(#SVGID_2_)" d="M309.071,173.361c2.434-4.547,4.896-8.997,7.388-13.321c2.588-4.498,5.206-8.851,7.843-13.059
	c0.155-0.252,0.31-0.504,0.465-0.747c2.618-4.14,5.255-8.114,7.911-11.915l-8.008-15.124c-0.601,0.737-1.212,1.483-1.823,2.249
	c-2.307,2.879-4.711,5.972-7.164,9.259c-2.773,3.704-5.623,7.649-8.512,11.798c-2.676,3.829-5.381,7.843-8.095,11.992
	c-2.307,3.539-4.625,7.174-6.922,10.907c-0.087,0.136-0.174,0.281-0.252,0.417l10.422,20.582
	C304.535,181.979,306.793,177.626,309.071,173.361z"/>
<linearGradient id="SVGID_3_" gradientUnits="userSpaceOnUse" x1="-6569.1147" y1="1927.75" x2="-5398.0068" y2="1927.75" gradientTransform="matrix(0.0607 -0.1302 -0.1302 -0.0607 892.9344 -372.8915)">
	<stop  offset="0" style="stop-color:#282662"/>
	<stop  offset="0.0955" style="stop-color:#662E8D"/>
	<stop  offset="0.7882" style="stop-color:#9F2064"/>
	<stop  offset="0.9487" style="stop-color:#CD2032"/>
</linearGradient>
<path fill="url(#SVGID_3_)" d="M261.606,289.34c-1.376,3.789-2.763,7.648-4.159,11.594c-0.019,0.059-0.039,0.115-0.058,0.174
	c-0.194,0.553-0.397,1.115-0.591,1.668c-0.94,2.656-1.745,5.051-3.616,10.49c3.073,1.406,5.536,5.09,7.862,9.268
	c-0.252-4.334-2.035-8.395-5.448-11.547c15.133,0.68,28.172-3.141,34.91-14.213c0.601-0.988,1.154-2.025,1.648-3.121
	c-3.063,3.889-6.864,5.535-14.009,5.139c-0.019,0.01-0.029,0.01-0.048,0.02c0.02-0.01,0.029-0.01,0.048-0.02
	c10.529-4.713,15.812-9.24,20.476-16.732c1.105-1.775,2.181-3.723,3.276-5.877c-9.2,9.453-19.874,12.148-31.11,10.104l-8.424,0.92
	C262.129,287.914,261.868,288.621,261.606,289.34z"/>
<linearGradient id="SVGID_4_" gradientUnits="userSpaceOnUse" x1="-6695.9692" y1="2143.0107" x2="-4730.7168" y2="2143.0107" gradientTransform="matrix(0.0607 -0.1302 -0.1302 -0.0607 892.9344 -372.8915)">
	<stop  offset="0.3233" style="stop-color:#9E2064"/>
	<stop  offset="0.6302" style="stop-color:#C92037"/>
	<stop  offset="0.7514" style="stop-color:#CD2335"/>
	<stop  offset="1" style="stop-color:#E97826"/>
</linearGradient>
<path fill="url(#SVGID_4_)" d="M265.542,270.463c1.822-4.703,3.694-9.473,5.623-14.271c1.842-4.594,3.732-9.228,5.671-13.881
	c1.939-4.654,3.917-9.316,5.933-13.98c2.055-4.75,4.159-9.481,6.292-14.203c2.113-4.664,4.266-9.298,6.457-13.892
	c0.786-1.658,1.58-3.306,2.385-4.945c1.377-2.841,2.773-5.661,4.179-8.454c0.077-0.155,0.155-0.3,0.232-0.445l-10.422-20.582
	c-0.174,0.281-0.339,0.562-0.514,0.833c-2.433,3.965-4.848,8.018-7.213,12.157c-2.395,4.179-4.75,8.444-7.048,12.768
	c-1.939,3.645-3.839,7.329-5.681,11.042c-0.368,0.756-0.736,1.502-1.096,2.249c-2.269,4.673-4.324,9.191-6.176,13.524
	c-2.103,4.916-3.945,9.617-5.574,14.068c-1.067,2.928-2.036,5.758-2.918,8.473c-0.728,2.326-1.425,4.644-2.084,6.961
	c-1.551,5.457-2.898,10.897-3.994,16.315l10.46,20.689c1.387-3.693,2.802-7.445,4.266-11.246
	C264.718,272.586,265.135,271.529,265.542,270.463z"/>
<linearGradient id="SVGID_5_" gradientUnits="userSpaceOnUse" x1="-6552.6396" y1="2116.4062" x2="-5519.8599" y2="2116.4062" gradientTransform="matrix(0.0607 -0.1302 -0.1302 -0.0607 892.9344 -372.8915)">
	<stop  offset="0" style="stop-color:#282662"/>
	<stop  offset="0.0955" style="stop-color:#662E8D"/>
	<stop  offset="0.7882" style="stop-color:#9F2064"/>
	<stop  offset="0.9487" style="stop-color:#CD2032"/>
</linearGradient>
<path fill="url(#SVGID_5_)" d="M249.439,264.947c-1.318,6.611-2.249,13.203-2.714,19.756c-0.02,0.234-0.039,0.457-0.049,0.689
	c-3.267-5.234-12.021-10.354-12.002-10.297c6.263,9.086,11.023,18.102,11.721,26.953c-3.354,0.688-7.95-0.311-13.262-2.258
	c5.536,5.088,9.694,6.494,11.313,6.871c-5.09,0.32-10.383,3.811-15.715,7.834c7.804-3.18,14.105-4.439,18.623-3.422
	c-7.165,20.262-14.338,42.637-21.522,66.389c2.201-0.65,3.509-2.123,4.256-4.129c1.28-4.305,9.772-32.537,23.073-69.627
	c0.378-1.059,0.756-2.115,1.144-3.191c0.107-0.289,0.213-0.592,0.32-0.893c1.406-3.887,2.859-7.861,4.372-11.914
	c0.339-0.92,0.688-1.842,1.037-2.771c0.01-0.02,0.01-0.039,0.02-0.059l-10.46-20.668
	C249.546,264.463,249.487,264.705,249.439,264.947z"/>
<linearGradient id="SVGID_6_" gradientUnits="userSpaceOnUse" x1="-6695.9624" y1="1939.6328" x2="-4730.7217" y2="1939.6328" gradientTransform="matrix(0.0607 -0.1302 -0.1302 -0.0607 892.9344 -372.8915)">
	<stop  offset="0.3233" style="stop-color:#9E2064"/>
	<stop  offset="0.6302" style="stop-color:#C92037"/>
	<stop  offset="0.7514" style="stop-color:#CD2335"/>
	<stop  offset="1" style="stop-color:#E97826"/>
</linearGradient>
<path fill="url(#SVGID_6_)" d="M303.934,188.125c-0.301,0.611-0.602,1.232-0.902,1.852c-0.901,1.861-1.822,3.761-2.743,5.701
	c-0.999,2.103-2.007,4.256-3.035,6.446c-0.514,1.105-1.027,2.22-1.551,3.355c-1.561,3.393-3.141,6.893-4.74,10.499
	c-1.968,4.44-3.975,9.056-6.011,13.845c-1.939,4.566-3.907,9.297-5.904,14.184c-1.891,4.644-3.81,9.433-5.749,14.378
	c-1.726,4.4-3.48,8.928-5.235,13.58c-0.087,0.225-0.174,0.457-0.252,0.68c-1.745,4.615-3.51,9.365-5.293,14.23
	c-0.039,0.107-0.078,0.225-0.126,0.33l8.425-0.92c-0.166-0.029-0.34-0.049-0.504-0.088c10.073-1.26,23.471-8.783,32.128-18.08
	c3.984-4.285,7.61-9.336,10.955-15.25c2.492-4.4,4.828-9.287,7.058-14.688c1.949-4.721,3.82-9.83,5.624-15.375
	c-2.317,1.221-4.964,2.113-7.892,2.733c-0.514,0.106-1.038,0.213-1.561,0.301c-0.533,0.097-1.066,0.174-1.609,0.252l0,0l0,0
	c0.009,0,0.009-0.01,0.02-0.01c9.394-3.616,15.317-10.587,19.622-19.138c-2.472,1.688-6.486,3.888-11.304,4.955
	c-0.649,0.145-1.328,0.262-2.007,0.358c-0.165,0.029-0.339,0.059-0.504,0.078l0,0l0,0c0.01,0,0.01,0,0.01-0.01h0.01l0,0
	c3.257-1.367,6.01-2.889,8.395-4.693c0.514-0.387,1.008-0.784,1.483-1.192c0.727-0.63,1.425-1.29,2.084-1.987
	c0.427-0.446,0.834-0.901,1.231-1.376c0.93-1.115,1.813-2.318,2.627-3.617c0.252-0.398,0.495-0.805,0.737-1.222
	c0.311-0.601,0.611-1.192,0.902-1.774c1.309-2.637,2.365-4.993,3.199-7.058c0.417-1.028,0.785-1.987,1.095-2.879
	c0.126-0.358,0.243-0.698,0.359-1.027c0.329-0.989,0.601-1.871,0.814-2.647c0.32-1.164,0.514-2.084,0.621-2.753l0,0l0,0
	c-0.32,0.252-0.688,0.504-1.096,0.746c-2.841,1.697-7.708,3.238-11.624,3.956l7.736-0.853l-7.736,0.853
	c-0.058,0.01-0.116,0.02-0.174,0.029c-0.388,0.068-0.785,0.126-1.183,0.194c0.068-0.029,0.136-0.068,0.204-0.097l-26.466,2.899
	C304.03,187.932,303.981,188.029,303.934,188.125z"/>
<linearGradient id="SVGID_7_" gradientUnits="userSpaceOnUse" x1="-6817.8774" y1="1949.7773" x2="-4852.6328" y2="1949.7773" gradientTransform="matrix(0.0607 -0.1302 -0.1302 -0.0607 892.9344 -372.8915)">
	<stop  offset="0.3233" style="stop-color:#9E2064"/>
	<stop  offset="0.6302" style="stop-color:#C92037"/>
	<stop  offset="0.7514" style="stop-color:#CD2335"/>
	<stop  offset="1" style="stop-color:#E97826"/>
</linearGradient>
<path fill="url(#SVGID_7_)" d="M333.725,134.621c-2.355,3.616-4.925,7.717-7.697,12.361c-0.146,0.242-0.291,0.495-0.437,0.737
	c-2.385,4.023-4.924,8.444-7.591,13.282c-2.307,4.178-4.702,8.657-7.203,13.476c-2.171,4.197-4.421,8.647-6.728,13.359l26.466-2.899
	c7.707-3.548,11.159-6.757,14.503-11.401c0.892-1.28,1.784-2.617,2.666-4.004c2.715-4.246,5.39-8.919,7.766-13.563
	c2.298-4.489,4.333-8.938,5.885-12.942c0.989-2.55,1.784-4.925,2.336-7.009c0.484-1.842,0.863-3.578,1.154-5.245
	C354.568,132.526,341.937,134.213,333.725,134.621z"/>
<path fill="#BE202E" d="M316.624,225.848c-0.533,0.097-1.066,0.174-1.609,0.252l0,0C315.557,226.032,316.09,225.945,316.624,225.848
	z"/>
<path opacity="0.35" fill="#BE202E" enable-background="new    " d="M316.624,225.848c-0.533,0.097-1.066,0.174-1.609,0.252l0,0
	C315.557,226.032,316.09,225.945,316.624,225.848z"/>
<linearGradient id="SVGID_8_" gradientUnits="userSpaceOnUse" x1="-6696.0771" y1="1879.125" x2="-4730.6562" y2="1879.125" gradientTransform="matrix(0.0607 -0.1302 -0.1302 -0.0607 892.9344 -372.8915)">
	<stop  offset="0.3233" style="stop-color:#9E2064"/>
	<stop  offset="0.6302" style="stop-color:#C92037"/>
	<stop  offset="0.7514" style="stop-color:#CD2335"/>
	<stop  offset="1" style="stop-color:#E97826"/>
</linearGradient>
<path fill="url(#SVGID_8_)" d="M316.624,225.848c-0.533,0.097-1.066,0.174-1.609,0.252l0,0
	C315.557,226.032,316.09,225.945,316.624,225.848z"/>
<path fill="#BE202E" d="M320.841,212.343c0.174-0.02,0.339-0.049,0.504-0.078C321.18,212.294,321.015,212.324,320.841,212.343
	L320.841,212.343z"/>
<path opacity="0.35" fill="#BE202E" enable-background="new    " d="M320.841,212.343c0.174-0.02,0.339-0.049,0.504-0.078
	C321.18,212.294,321.015,212.324,320.841,212.343L320.841,212.343z"/>
<linearGradient id="SVGID_9_" gradientUnits="userSpaceOnUse" x1="-6697.0352" y1="1886.0664" x2="-4730.1982" y2="1886.0664" gradientTransform="matrix(0.0607 -0.1302 -0.1302 -0.0607 892.9344 -372.8915)">
	<stop  offset="0.3233" style="stop-color:#9E2064"/>
	<stop  offset="0.6302" style="stop-color:#C92037"/>
	<stop  offset="0.7514" style="stop-color:#CD2335"/>
	<stop  offset="1" style="stop-color:#E97826"/>
</linearGradient>
<path fill="url(#SVGID_9_)" d="M320.841,212.343c0.174-0.02,0.339-0.049,0.504-0.078
	C321.18,212.294,321.015,212.324,320.841,212.343L320.841,212.343z"/>
<path fill="#BE202E" d="M320.86,212.333L320.86,212.333L320.86,212.333L320.86,212.333L320.86,212.333L320.86,212.333z"/>
<path opacity="0.35" fill="#BE202E" enable-background="new    " d="M320.86,212.333L320.86,212.333L320.86,212.333L320.86,212.333
	L320.86,212.333L320.86,212.333z"/>
<linearGradient id="SVGID_10_" gradientUnits="userSpaceOnUse" x1="-5374.7305" y1="1887.4453" x2="-5374.7305" y2="1887.4453" gradientTransform="matrix(0.0607 -0.1302 -0.1302 -0.0607 892.9344 -372.8915)">
	<stop  offset="0.3233" style="stop-color:#9E2064"/>
	<stop  offset="0.6302" style="stop-color:#C92037"/>
	<stop  offset="0.7514" style="stop-color:#CD2335"/>
	<stop  offset="1" style="stop-color:#E97826"/>
</linearGradient>
<path fill="url(#SVGID_10_)" d="M320.86,212.333L320.86,212.333L320.86,212.333L320.86,212.333L320.86,212.333L320.86,212.333z"/>
</svg>
