<?xml version="1.0" encoding="utf-8"?>
<!-- Generator: Adobe Illustrator 16.0.0, SVG Export Plug-In . SVG Version: 6.00 Build 0)  -->
<!DOCTYPE svg PUBLIC "-//W3C//DTD SVG 1.1//EN" "http://www.w3.org/Graphics/SVG/1.1/DTD/svg11.dtd">
<svg version="1.1" id="Layer_1" xmlns="http://www.w3.org/2000/svg" xmlns:xlink="http://www.w3.org/1999/xlink" x="0px" y="0px"
	 width="40px" height="40px" viewBox="0 0 40 40" enable-background="new 0 0 40 40" xml:space="preserve">
<path fill-rule="evenodd" clip-rule="evenodd" fill="#FFFFFF" d="M20,0.834c-10.803,0-19.565,8.76-19.565,19.567
	c0,8.645,5.606,15.979,13.381,18.566c0.979,0.179,1.335-0.424,1.335-0.942c0-0.465-0.017-1.697-0.027-3.331
	c-5.442,1.184-6.591-2.621-6.591-2.621c-0.89-2.259-2.172-2.862-2.172-2.862c-1.777-1.213,0.134-1.188,0.134-1.188
	c1.963,0.137,2.997,2.018,2.997,2.018c1.745,2.987,4.579,2.124,5.694,1.625c0.178-1.265,0.683-2.128,1.243-2.615
	c-4.345-0.495-8.913-2.173-8.913-9.671c0-2.137,0.763-3.883,2.014-5.251c-0.201-0.495-0.873-2.484,0.192-5.178
	c0,0,1.642-0.527,5.38,2.005c1.56-0.434,3.234-0.651,4.898-0.658c1.663,0.007,3.334,0.225,4.897,0.658
	c3.736-2.532,5.376-2.005,5.376-2.005c1.068,2.693,0.396,4.683,0.194,5.178c1.253,1.368,2.012,3.114,2.012,5.251
	c0,7.516-4.576,9.171-8.934,9.653c0.702,0.607,1.327,1.8,1.327,3.625c0,2.616-0.023,4.725-0.023,5.368
	c0,0.523,0.354,1.13,1.346,0.939c7.768-2.592,13.368-9.92,13.368-18.563C39.565,9.594,30.806,0.834,20,0.834z"/>
<g>
</g>
<g>
</g>
<g>
</g>
<g>
</g>
<g>
</g>
<g>
</g>
<g>
</g>
<g>
</g>
<g>
</g>
<g>
</g>
<g>
</g>
<g>
</g>
<g>
</g>
<g>
</g>
<g>
</g>
</svg>
