<svg xmlns="http://www.w3.org/2000/svg" width="148" height="31">
    <path fill="#FFF" fill-rule="evenodd" d="M8.198 25.548c.644 0 1.302-.147 1.974-.441a7.13 7.13 0 0 0 1.932-1.281v-2.562H8.576c-.812 0-1.442.238-1.89.714a2.371 2.371 0 0 0-.672 1.68c0 .504.21.945.63 1.323.42.378.938.567 1.554.567zM9.542 9.042c2.548 0 4.641.728 6.279 2.184 1.638 1.456 2.457 3.332 2.457 5.628V30h-3.024l-1.344-1.68c-.7.616-1.561 1.134-2.583 1.554a8.163 8.163 0 0 1-3.129.63c-2.52 0-4.389-.623-5.607-1.869S.764 25.758.764 23.742c0-2.128.721-3.738 2.163-4.83 1.442-1.092 3.325-1.638 5.649-1.638h3.486c-.056-.868-.357-1.554-.903-2.058-.546-.504-1.267-.756-2.163-.756-.868 0-1.834.126-2.898.378s-1.988.56-2.772.924L1.688 10.89c.868-.504 2.114-.938 3.738-1.302 1.624-.364 2.996-.546 4.116-.546zM31.73 25.296c.532 0 1.12-.112 1.764-.336a8.549 8.549 0 0 0 1.764-.84v-8.652a7.127 7.127 0 0 0-1.806-1.029c-.672-.266-1.316-.399-1.932-.399-1.652 0-2.807.616-3.465 1.848-.658 1.232-.987 2.492-.987 3.78 0 1.484.336 2.793 1.008 3.927.672 1.134 1.89 1.701 3.654 1.701zM41.474.348V30h-3.192l-1.47-2.016c-.812.7-1.813 1.295-3.003 1.785a9.67 9.67 0 0 1-3.717.735c-3.08 0-5.418-1.029-7.014-3.087-1.596-2.058-2.394-4.613-2.394-7.665 0-3.08.833-5.663 2.499-7.749 1.666-2.086 4.081-3.129 7.245-3.129.7 0 1.484.112 2.352.336.868.224 1.694.546 2.478.966V.81l6.216-.462zM50.81 30l-7.812-19.614 6.258-.756 4.494 12.054L58.034 9.63h6.342L56.354 30H50.81zm21.558-4.452c.644 0 1.302-.147 1.974-.441a7.13 7.13 0 0 0 1.932-1.281v-2.562h-3.528c-.812 0-1.442.238-1.89.714a2.371 2.371 0 0 0-.672 1.68c0 .504.21.945.63 1.323.42.378.938.567 1.554.567zm1.344-16.506c2.548 0 4.641.728 6.279 2.184 1.638 1.456 2.457 3.332 2.457 5.628V30h-3.024l-1.344-1.68c-.7.616-1.561 1.134-2.583 1.554a8.163 8.163 0 0 1-3.129.63c-2.52 0-4.389-.623-5.607-1.869s-1.827-2.877-1.827-4.893c0-2.128.721-3.738 2.163-4.83 1.442-1.092 3.325-1.638 5.649-1.638h3.486c-.056-.868-.357-1.554-.903-2.058-.546-.504-1.267-.756-2.163-.756-.868 0-1.834.126-2.898.378s-1.988.56-2.772.924l-1.638-4.872c.868-.504 2.114-.938 3.738-1.302 1.624-.364 2.996-.546 4.116-.546zm24.414-.168c2.8 0 4.795.805 5.985 2.415 1.19 1.61 1.785 3.605 1.785 5.985V30h-6.174V17.526c0-1.12-.287-1.981-.861-2.583-.574-.602-1.365-.903-2.373-.903-.672 0-1.421.175-2.247.525-.826.35-1.575.749-2.247 1.197V30H85.82V9.63h3.192l1.638 2.058c.896-.784 2.044-1.449 3.444-1.995s2.744-.819 4.032-.819zm21.222 5.334c-1.372 0-2.485.525-3.339 1.575-.854 1.05-1.281 2.401-1.281 4.053 0 1.652.427 2.975 1.281 3.969.854.994 1.967 1.491 3.339 1.491.868 0 1.652-.098 2.352-.294.7-.196 1.526-.518 2.478-.966l1.722 4.368c-1.008.784-2.184 1.33-3.528 1.638-1.344.308-2.45.462-3.318.462-3.304 0-5.915-.952-7.833-2.856-1.918-1.904-2.877-4.508-2.877-7.812 0-3.304.959-5.929 2.877-7.875 1.918-1.946 4.529-2.919 7.833-2.919.868 0 1.967.154 3.297.462a9.272 9.272 0 0 1 3.549 1.638l-1.722 4.368c-.952-.448-1.778-.777-2.478-.987-.7-.21-1.484-.315-2.352-.315zm18.408-5.166c3.192 0 5.558 1.05 7.098 3.15 1.54 2.1 2.31 4.592 2.31 7.476v2.016h-13.272c.28 1.148.861 2.044 1.743 2.688.882.644 2.009.966 3.381.966.924 0 1.785-.105 2.583-.315.798-.21 1.659-.539 2.583-.987l1.806 4.368c-1.036.784-2.296 1.33-3.78 1.638-1.484.308-2.66.462-3.528.462-3.444 0-6.209-.931-8.295-2.793-2.086-1.862-3.129-4.487-3.129-7.875 0-3.304.966-5.929 2.898-7.875 1.932-1.946 4.466-2.919 7.602-2.919zm-.168 5.124c-.952 0-1.764.308-2.436.924-.672.616-1.106 1.484-1.302 2.604h7.434c-.196-1.064-.602-1.918-1.218-2.562-.616-.644-1.442-.966-2.478-.966z"/>
</svg>
