<?xml version="1.0" encoding="utf-8"?>
<!-- Generator: Adobe Illustrator 16.0.0, SVG Export Plug-In . SVG Version: 6.00 Build 0)  -->
<!DOCTYPE svg PUBLIC "-//W3C//DTD SVG 1.1//EN" "http://www.w3.org/Graphics/SVG/1.1/DTD/svg11.dtd">
<svg version="1.1" id="Layer_1" xmlns="http://www.w3.org/2000/svg" xmlns:xlink="http://www.w3.org/1999/xlink" x="0px" y="0px"
	 width="105px" height="23px" viewBox="0 0 105 23" enable-background="new 0 0 105 23" xml:space="preserve">
<g>
	<path fill="#FFFFFF" d="M42.844,6.99c0.494-0.017,0.77,0.014,0.938,0.03h6.468v2.638h-3.036c0,0-2.036,0.004-3.086,0
		c-2.147,0.015-4.163,0.389-4.261,0.401L42.844,6.99z"/>
	<path fill="#FFFFFF" d="M34.317,12.576c0.183,0.239,0.184,0.25,0.37,0.512c3.347,4.706,7.962,4.245,8.157,4.223v2.643
		c-0.05,0.006-0.012,0.021-0.463,0.021c-1.819,0-6.41-0.521-9.847-5.354c-0.096-0.134-0.096-0.137-0.189-0.264L34.317,12.576z"/>
	<path fill="#FFFFFF" d="M32.25,14.229c-3.234-4.351-5.848-4.593-5.848-4.593V7.004c0.394,0.009,3.815,0.237,7.731,5.334
		L32.25,14.229z"/>
	<path fill="#FFFFFF" d="M1.008,19.799V8.182C2.89,7.244,4.852,6.777,6.892,6.777c1.79,0,3.188,0.466,4.195,1.398
		c1.009,0.933,1.514,2.24,1.514,3.92v7.703H9.514v-7.967c0-0.342-0.031-0.629-0.094-0.858c-0.062-0.231-0.187-0.471-0.375-0.722
		c-0.188-0.25-0.496-0.439-0.922-0.565C7.695,9.562,7.147,9.499,6.478,9.499c-0.753,0-1.547,0.075-2.384,0.226v10.074H1.008z"/>
	<path fill="#FFFFFF" d="M14.606,13.525c0-2.057,0.458-3.701,1.374-4.93c0.916-1.229,2.369-1.844,4.359-1.844
		c1.883,0,3.307,0.598,4.273,1.794c0.966,1.195,1.449,2.669,1.449,4.415c0,0.72-0.017,1.252-0.05,1.595h-8.317
		c0.083,1.111,0.415,1.856,0.997,2.232c0.582,0.376,1.336,0.564,2.265,0.564c1.505,0,2.479,0.032,4.367-0.507l0.015,2.616
		C24.352,19.922,22.288,20,20.49,20c-0.569,0-1.104-0.046-1.605-0.138c-0.502-0.092-1.022-0.284-1.561-0.577
		c-0.538-0.293-1.001-0.665-1.39-1.117c-0.388-0.451-0.706-1.076-0.955-1.875S14.606,14.572,14.606,13.525z M17.692,12.422h5.169
		c-0.083-0.879-0.345-1.622-0.785-2.228c-0.438-0.605-1.043-0.909-1.812-0.909c-0.771,0-1.371,0.248-1.801,0.742
		C18.033,10.521,17.776,11.318,17.692,12.422z"/>
	<rect x="44.127" y="3.176" fill="#FFFFFF" width="3.086" height="2.924"/>
	<path fill="#FFFFFF" d="M47.558,17.064c-0.229-0.192-0.345-0.565-0.345-1.117v-5.34h-3.086v5.152c0,1.322,0.364,2.359,1.09,3.111
		c0.728,0.753,1.728,1.13,3,1.13c0.017,0,0.037,0,0.062,0c0.711,0,1.368-0.126,1.971-0.377v-2.546
		c-0.426,0.185-0.915,0.275-1.468,0.275C48.196,17.353,47.788,17.257,47.558,17.064z"/>
	<path fill="#FFFFFF" d="M52.345,9.625V6.977h2.183c0.017-3.571,1.61-5.357,4.78-5.357c0.41,0,0.828,0.042,1.255,0.127v2.457
		c-0.31-0.033-0.54-0.05-0.69-0.05c-0.803,0-1.381,0.193-1.73,0.578c-0.353,0.384-0.527,1.133-0.527,2.245h2.948v2.647h-2.948
		v10.174h-3.087V9.625H52.345z"/>
	<path fill="#FFFFFF" d="M63.085,19.799V2.097h3.085v17.702H63.085z"/>
	<path fill="#FFFFFF" d="M71.139,18.294c-1.046-1.137-1.568-2.769-1.568-4.893c0-2.125,0.522-3.756,1.568-4.894
		c1.045-1.138,2.545-1.706,4.498-1.706s3.452,0.568,4.497,1.706c1.045,1.138,1.568,2.769,1.568,4.894
		c0,2.124-0.523,3.756-1.568,4.893C79.089,19.432,77.59,20,75.637,20S72.184,19.432,71.139,18.294z M73.391,10.177
		c-0.488,0.56-0.733,1.637-0.733,3.23c0,1.593,0.245,2.668,0.733,3.224c0.489,0.558,1.24,0.834,2.252,0.834
		c1.013,0,1.761-0.276,2.246-0.834c0.484-0.556,0.728-1.631,0.728-3.224c0-1.594-0.243-2.67-0.728-3.23
		c-0.485-0.561-1.233-0.84-2.246-0.84C74.631,9.336,73.88,9.616,73.391,10.177z"/>
	<path fill="#FFFFFF" d="M83.422,6.977h3.262l2.723,9.247l2.446-9.247H94.5l2.434,9.247l2.723-9.247h3.262l-4.542,12.822H95.29
		l-2.108-7.377l-2.132,7.377h-3.087L83.422,6.977z"/>
	<path fill="#FFFFFF" d="M27.975,15.846c-3.354,1.7-6.162,1.488-6.334,1.476l-0.207,2.636c0.044,0.003,0.239,0.018,0.557,0.018
		c1.099,0,3.582-0.127,6.521-1.462L27.975,15.846z"/>
	<path fill="#FFFFFF" d="M43.782,7.02c-0.211-0.021-0.715-0.053-1.429,0h-0.009L42.34,7.021c-2.113,0.158-6.052,1.062-9.721,5.215
		c-1.688,1.909-3.507,3.108-5.169,3.858c-2.271,2.616-6.016,3.862-6.016,3.862c0.044,0.003,0.239,0.018,0.557,0.018
		c1.828,0,7.725-0.461,12.609-5.989c3.048-3.45,4.327-3.708,6.095-4.135c0,0,1.63-0.842,3.733-1.484
		c2.991-0.951,5.82-1.346,5.82-1.346H43.782z"/>
</g>
</svg>
