<?xml version="1.0" encoding="iso-8859-1"?>
<!-- Generator: Adobe Illustrator 19.0.0, SVG Export Plug-In . SVG Version: 6.00 Build 0)  -->
<svg version="1.1" id="Capa_1" xmlns="http://www.w3.org/2000/svg" xmlns:xlink="http://www.w3.org/1999/xlink" x="0px" y="0px"
	 viewBox="0 0 512 512" style="enable-background:new 0 0 512 512;" xml:space="preserve">
<g>
	<g>
		<path d="M497,50H15C6.716,50,0,56.716,0,65v382c0,8.284,6.716,15,15,15h482c8.284,0,15-6.716,15-15V65
			C512,56.716,505.284,50,497,50z M482,432H30V140h452V432z M482,110H30V80h452V110z"/>
	</g>
</g>
<g>
	<g>
		<path d="M416,186H186c-8.284,0-15,6.716-15,15s6.716,15,15,15h230c8.284,0,15-6.716,15-15S424.284,186,416,186z"/>
	</g>
</g>
<g>
	<g>
		<path d="M416,356H96c-8.284,0-15,6.716-15,15s6.716,15,15,15h320c8.284,0,15-6.716,15-15S424.284,356,416,356z"/>
	</g>
</g>
<g>
	<g>
		<circle cx="116" cy="201" r="20"/>
	</g>
</g>
<g>
	<g>
		<path d="M256,271H96c-8.284,0-15,6.716-15,15s6.716,15,15,15h160c8.284,0,15-6.716,15-15S264.284,271,256,271z"/>
	</g>
</g>
<g>
	<g>
		<circle cx="396" cy="286" r="20"/>
	</g>
</g>
<g>
	<g>
		<circle cx="326" cy="286" r="20"/>
	</g>
</g>
<g>
</g>
<g>
</g>
<g>
</g>
<g>
</g>
<g>
</g>
<g>
</g>
<g>
</g>
<g>
</g>
<g>
</g>
<g>
</g>
<g>
</g>
<g>
</g>
<g>
</g>
<g>
</g>
<g>
</g>
</svg>
