<svg height="512pt" viewBox="0 -48 512 512" width="512pt" xmlns="http://www.w3.org/2000/svg"><path d="m341.730469 46.148438v-16.148438h3.230469c8.285156 0 15-6.714844 15-15s-6.714844-15-15-15h-36.464844c-8.28125 0-15 6.714844-15 15s6.71875 15 15 15h3.230468v16.148438c-95.167968 7.664062-170.269531 87.554687-170.269531 184.660156 0 102.160156 83.113281 185.273437 185.269531 185.273437 102.160157 0 185.273438-83.113281 185.273438-185.269531 0-97.109375-75.101562-177-170.269531-184.664062zm-15 339.933593c-85.617188 0-155.273438-69.652343-155.273438-155.269531s69.65625-155.273438 155.273438-155.273438c85.617187 0 155.269531 69.65625 155.269531 155.273438s-69.652344 155.269531-155.269531 155.269531zm0 0"/><path d="m326.730469 93.597656c-75.660157 0-137.210938 61.554688-137.210938 137.210938 0 75.660156 61.550781 137.210937 137.210938 137.210937 75.65625 0 137.210937-61.550781 137.210937-137.210937 0-75.65625-61.554687-137.210938-137.210937-137.210938zm15 243.371094v-14.503906c0-8.285156-6.71875-15-15-15-8.285157 0-15 6.714844-15 15v14.503906c-47.136719-6.628906-84.53125-44.023438-91.15625-91.160156h14.5c8.285156 0 15-6.714844 15-15 0-8.28125-6.714844-15-15-15h-14.5c6.628906-47.136719 44.019531-84.527344 91.15625-91.15625v14.503906c0 8.285156 6.714843 15 15 15 8.28125 0 15-6.714844 15-15v-14.503906c47.136719 6.628906 84.527343 44.019531 91.15625 91.15625h-14.503907c-8.285156 0-15 6.71875-15 15 0 8.285156 6.714844 15 15 15h14.503907c-6.628907 47.136718-44.019531 84.53125-91.15625 91.160156zm0 0"/><path d="m341.730469 224.597656v-33.386718c0-8.285157-6.71875-15-15-15-8.285157 0-15 6.714843-15 15v39.601562c0 3.976562 1.578125 7.792969 4.390625 10.605469l32.242187 32.242187c2.929688 2.929688 6.769531 4.390625 10.609375 4.390625 3.835938 0 7.675782-1.460937 10.605469-4.394531 5.855469-5.855469 5.855469-15.351562 0-21.210938zm0 0"/><path d="m98.816406 264.648438h-55.878906c-8.28125 0-15 6.714843-15 15 0 8.285156 6.71875 15 15 15h55.878906c8.285156 0 15-6.714844 15-15 0-8.285157-6.714844-15-15-15zm0 0"/><path d="m98.816406 202.5625h-83.816406c-8.285156 0-15 6.714844-15 15s6.714844 15 15 15h83.816406c8.285156 0 15-6.714844 15-15s-6.714844-15-15-15zm0 0"/><path d="m98.816406 140.476562h-55.878906c-8.28125 0-15 6.714844-15 15 0 8.28125 6.71875 15 15 15h55.878906c8.285156 0 15-6.71875 15-15 0-8.285156-6.714844-15-15-15zm0 0"/></svg>