<svg id="Capa_1" enable-background="new 0 0 510 510" height="512" viewBox="0 0 510 510" width="512" xmlns="http://www.w3.org/2000/svg"><path d="m432.195 342.861c8.291 0 14.984-6.728 14.984-14.987v-312.893c0-8.274-6.707-14.981-14.981-14.981-11.206 0-289.532 0-298.897 0-38.863 0-70.48 31.618-70.48 70.48v312.893c0 .042.006.083.006.126.031 18.776 7.358 36.427 20.644 49.713 13.308 13.308 31.002 20.637 49.823 20.637h20.206v41.154c0 12.692 14.82 19.565 24.522 11.55l32.87-27.153 32.869 27.153c9.739 8.044 24.522 1.114 24.522-11.55v-41.154h163.911c8.274 0 14.981-6.707 14.981-14.981s-6.707-14.981-14.981-14.981h-14.721c0-2.465 0-58.224 0-81.027h14.722zm-14.978-312.899v282.931h-246.533v-282.931zm-283.916 0h7.421v282.931h-7.421c-13.989 0-28.23 4.145-40.518 12.824v-255.237c0-22.341 18.176-40.518 40.518-40.518zm105.021 433.234-17.888-14.777c-5.538-4.575-13.543-4.575-19.082 0l-17.889 14.778c0-.063 0-64.841 0-64.841h54.86v64.84zm29.962-39.308v-25.532h119.228v25.532zm119.228-55.494h-134.209-84.821-.033c-8.372 0-15.322 6.921-14.948 15.628v39.866h-20.206c-22.38 0-40.509-18.113-40.509-40.518 0-22.339 18.184-40.509 40.509-40.509h254.217z"/><path d="m225.588 162.294h136.725c8.274 0 14.981-6.707 14.981-14.981v-63.651c0-8.274-6.707-14.981-14.981-14.981h-136.725c-8.274 0-14.981 6.707-14.981 14.981v63.651c0 8.274 6.707 14.981 14.981 14.981zm14.981-63.651h106.763v33.689h-106.763z"/></svg>