<svg xmlns="http://www.w3.org/2000/svg" xmlns:xlink="http://www.w3.org/1999/xlink" width="100" height="100">
    <svg xmlns="http://www.w3.org/2000/svg" fill="#333" data-name="Layer 1" transform="matrix(.69 0 0 .69 15.5 15.5)" viewBox="0 0 200 200">
        <path d="M180.4 28.69H18.78a12 12 0 0 0-12 12V159.3a12 12 0 0 0 12 12h161.43a12.22 12.22 0 0 0 12.2-12.21V40.7a12 12 0 0 0-12.01-12.01zm4 130.41a4.21 4.21 0 0 1-4.2 4.21H18.78a4 4 0 0 1-4-4V40.7a4 4 0 0 1 4-4h49l18.54 22.43a9.08 9.08 0 0 0 7 3.32h91.06zm0-100.65H93.35a5.09 5.09 0 0 1-3.94-1.86L73 36.69h107.4a4 4 0 0 1 4 4z"/>
        <circle cx="32.14" cy="47.29" r="5.72"/>
        <circle cx="55.44" cy="47.29" r="5.72"/>
        <path d="M82.7 125.85L61.94 115.7 81 106.94a4 4 0 0 0-3.33-7.28L50.92 112a4 4 0 0 0-.09 7.23L79.19 133a3.94 3.94 0 0 0 1.75.41 4 4 0 0 0 1.76-7.59zM118.24 133.44A4 4 0 0 0 120 133l28.35-13.85a4 4 0 0 0-.08-7.23l-26.79-12.26a4 4 0 0 0-3.34 7.28l19.11 8.76-20.76 10.15a4 4 0 0 0 1.75 7.59zM88.15 149.9a4.12 4.12 0 0 0 1.24.2 4 4 0 0 0 3.8-2.77l19.34-59.45a4 4 0 0 0-7.61-2.47l-19.34 59.45a4 4 0 0 0 2.57 5.04z"/>
    </svg>
</svg>
