<svg xmlns="http://www.w3.org/2000/svg" xmlns:xlink="http://www.w3.org/1999/xlink" width="100" height="100">
    <svg xmlns="http://www.w3.org/2000/svg" fill="#333" data-name="Layer 1" transform="matrix(.69 0 0 .69 15.5 15.5)" viewBox="0 0 200 200">
        <path d="M192.87 147.09H166.1a4.2 4.2 0 0 0-.51 0V147a2 2 0 0 0-2-2h-7v-9.1a2 2 0 0 0-2-2h-.08V129a105.58 105.58 0 0 0 26.74-4.06c10.07-3.09 15.17-7.16 15.17-12.1v-57.6c0-14-41.43-14.41-46.15-14.41s-46.15.4-46.15 14.41v57.57c0 10.48 23.65 15.56 42.39 16.16v4.94h-.08a2 2 0 0 0-2 2V145h-7a2 2 0 0 0-2 2v.14a4.07 4.07 0 0 0-.61-.06H65.08a4.2 4.2 0 0 0-.51 0V147a2 2 0 0 0-2-2h-7v-9.1a2 2 0 0 0-2-2h-.08V129a105.66 105.66 0 0 0 26.75-4.06c10.06-3.09 15.17-7.16 15.17-12.1v-57.6c0-14-41.43-14.41-46.15-14.41s-46.15.4-46.15 14.41v57.57c0 10.48 23.64 15.56 42.38 16.16v4.94h-.07a2 2 0 0 0-2 2V145h-7a2 2 0 0 0-2 2v.13a4.2 4.2 0 0 0-.51 0H7.18a4 4 0 0 0 0 8H34a4.2 4.2 0 0 0 .51-.05v.13a2 2 0 0 0 2 2h26.06a2 2 0 0 0 2-2V155a4.2 4.2 0 0 0 .51.05h69.79a4.07 4.07 0 0 0 .61-.06v.14a2 2 0 0 0 2 2h26.11a2 2 0 0 0 2-2V155a4.2 4.2 0 0 0 .51.05h26.77a4 4 0 0 0 0-8zM150.3 48.83c22.18 0 36.15 4.26 38.15 6.77v.59c-1.57 1.07-4.34 2.34-9 3.53-7.76 2-18.11 3.07-29.15 3.07s-21.39-1.09-29.15-3.07c-4.66-1.19-7.43-2.46-9-3.53v-.59c2.01-2.51 15.97-6.77 38.15-6.77zm-38.15 63.7V90.91a33.92 33.92 0 0 0 4.36 1.66h.06a1.84 1.84 0 0 0 .53.09 1.91 1.91 0 0 0 .54-.09h.12a2.16 2.16 0 0 0 .48-.24h.06a2.45 2.45 0 0 0 .36-.36l.06-.07a2.13 2.13 0 0 0 .25-.5.34.34 0 0 0 0-.1 1.17 1.17 0 0 0 0-.2v-.21-19.95a2 2 0 0 0-4 0v16.89a19 19 0 0 1-3-1.45V60.73c8 4 23.13 6.06 38.15 6.06s30.16-2.06 38.15-6.07v25.7c-4.75 2.85-17.84 6.24-38.15 6.24a140.93 140.93 0 0 1-24.61-2 2 2 0 1 0-.51 3.94 144.19 144.19 0 0 0 25.33 2.06c11.41 0 22.17-1.1 30.29-3.11a42.2 42.2 0 0 0 7.86-2.65v21.63c-1.57 2.47-15 8.51-38.15 8.51-14.23 0-24.8-2.3-31.19-4.63V101a2 2 0 0 0-4 0v13.67a8.23 8.23 0 0 1-2.99-2.14zm-62.87-63.7c22.18 0 36.14 4.26 38.15 6.77v.59c-1.57 1.07-4.34 2.34-9 3.53-7.76 2-18.11 3.07-29.15 3.07s-21.39-1.09-29.15-3.07c-4.66-1.19-7.43-2.46-9-3.53v-.59c2-2.51 15.97-6.77 38.15-6.77zm-38.15 63.7V90.91a34.32 34.32 0 0 0 4.35 1.66h.07a1.84 1.84 0 0 0 .53.09 1.91 1.91 0 0 0 .54-.09h.11a2 2 0 0 0 .49-.24h.06a2.45 2.45 0 0 0 .36-.36l.05-.07a1.83 1.83 0 0 0 .26-.5v-.1a1.18 1.18 0 0 0 0-.2 1.52 1.52 0 0 0 0-.21V70.94a2 2 0 0 0-4 0v16.89a19 19 0 0 1-3-1.45V60.73c8 4 23.13 6.06 38.15 6.06s30.16-2.06 38.15-6.06v25.69c-4.75 2.85-17.84 6.24-38.15 6.24a140.85 140.85 0 0 1-24.61-2A2 2 0 1 0 24 94.6a144.19 144.19 0 0 0 25.33 2.06c11.41 0 22.17-1.1 30.28-3.11a42.07 42.07 0 0 0 7.87-2.65v21.63C85.86 115 72.38 121 49.28 121c-14.23 0-24.8-2.29-31.19-4.63V101a2 2 0 0 0-4 0v13.67a8.23 8.23 0 0 1-2.96-2.14zm49.44 40.64H38.46V149h7a2 2 0 0 0 2-2v-8h4.15v8a2 2 0 0 0 2 2h7zm101 0h-22.09V149h7a2 2 0 0 0 2-2v-8h4.16v8a2 2 0 0 0 2 2h7z"/>
    </svg>
</svg>
