<svg xmlns="http://www.w3.org/2000/svg" xmlns:xlink="http://www.w3.org/1999/xlink" width="100" height="100" viewBox="0 0 100 100">
    <g>
        <g style="fill:#ffffff" transform="translate(50 50) scale(0.69 0.69) rotate(0) translate(-50 -50)">
            <svg xmlns="http://www.w3.org/2000/svg" x="0px" y="0px" fill="#333" data-name="Layer 1" viewBox="0 0 200 200">
                <title>
                    touch-phone
                </title>
                <path d="M131,191.49a34.11,34.11,0,0,1-19.71-6.28L111,185a298.69,298.69,0,0,0-47.58-33.6l-.36-.23A15.56,15.56,0,0,1,79.88,125l7.45,4.27L65,72.64a14.66,14.66,0,0,1,8.27-19c.4-.16.8-.3,1.21-.43a14.87,14.87,0,0,1,17.83,9l9.38,23.67a13.54,13.54,0,0,1,18.22-1,13.12,13.12,0,0,1,5.79-4.42c4-1.57,8.29-.62,11.77,1.67a12.28,12.28,0,0,1,21.79,2.06l24,60.52a26.76,26.76,0,0,1-15.07,34.74l-24.56,9.69A34.23,34.23,0,0,1,131,191.49ZM116,178.79a26.13,26.13,0,0,0,24.58,2.86L165.19,172a18.76,18.76,0,0,0,10.56-24.36l-24-60.52a4.28,4.28,0,0,0-8,3l8.54,21.39a4,4,0,0,1-7.43,3l-8.48-21.22-.11-.27-.26-.67c-1.22-3.08-5-5.33-7.42-4.39a5.28,5.28,0,0,0-2.91,2.81,5.19,5.19,0,0,0-.2,3.66l8,20.2a4,4,0,1,1-7.43,3l-7.92-19.83c-.08-.2-.15-.4-.22-.6l-1.5-3.77a5.54,5.54,0,0,0-10.56,3.25l8,20.09a4,4,0,0,1-7.44,3L98.72,100.3c-.16-.41-.3-.83-.42-1.25L84.84,65.1a6.81,6.81,0,0,0-8.09-4.24c-.19,0-.38.12-.57.19a6.66,6.66,0,0,0-3.76,8.66L99,137a4,4,0,0,1-5.71,4.94L75.9,132a7.55,7.55,0,0,0-8.35,12.55A306.73,306.73,0,0,1,116,178.79Z"/>
                <circle cx="72.52" cy="170.86" r="7.56"/>
                <path d="M117.85,190.59H27a12,12,0,0,1-12-12v-158a12,12,0,0,1,12-12H118a12,12,0,0,1,12,12v63.6h-8V20.53a4,4,0,0,0-4-4H27a4,4,0,0,0-4,4V178.58a4,4,0,0,0,4,4h90.86a4.08,4.08,0,0,0,1.73-.38l3.32,7.28A12,12,0,0,1,117.85,190.59Z"/>
                <rect width="61.15" height="4" x="18.93" y="156.13"/>
                <rect width="107.17" height="4" x="18.93" y="27.82"/>
            </svg>
        </g>
    </g>
</svg>
